<?xml version="1.0" encoding="UTF-8"?>
<svg width="282px" height="67px" viewBox="0 0 282 67" version="1.1" xmlns="http://www.w3.org/2000/svg" xmlns:xlink="http://www.w3.org/1999/xlink">
    <!-- Generator: Sketch 43 (38999) - http://www.bohemiancoding.com/sketch -->
    <title>eh</title>
    <desc>Created with Sketch.</desc>
    <defs></defs>
    <g id="Page-1" stroke="none" stroke-width="1" fill="none" fill-rule="evenodd">
        <g id="Batman">
            <path d="M18.931177,10.7889005 C17.6327767,11.053947 16.5303291,11.3908781 15.6241734,11.8072496 C7.34336016,14.5906972 1.4147067,24.0586168 0.342285156,32.1035073 C-0.0560125151,35.091382 -0.428656931,45.9418198 1.59718857,50.814767 C2.97332435,55.6851917 6.62518651,59.7412981 11.477563,62.0181524 C15.1588466,63.9376318 22.1785254,65 31.5,65 C31.6670467,65 31.8337182,64.9995276 32,64.998587 C32.1662818,64.9995276 32.3329533,65 32.5,65 C41.8214746,65 48.8411534,63.9376318 52.522437,62.0181524 C57.3748135,59.7412981 61.0266756,55.6851917 62.4028114,50.814767 C64.4286569,45.9418198 64.0560125,35.091382 63.6577148,32.1035073 C62.5852933,24.0586168 56.6566398,14.5906972 48.3758266,11.8072496 C47.6024849,11.4519051 46.686175,11.1544206 45.6271077,10.9100996 C45.0356196,10.7458866 44.3853423,10.5929529 43.6716309,10.4526367 C38.0153596,9.34060998 34.2688486,9.31005859 30.7910156,9.31005859 C26.6309721,9.31005859 22.1532262,9.99848948 18.931177,10.7889005 Z" id="Face" fill="#2966A9"></path>
            <path d="M45.4085083,0.166015625 L63.7315063,26.8752441 L39.7299805,32.4280396 C39.7299805,32.4280396 40.244801,27.6436279 40.6514282,25.2741699 C41.0580554,22.9047119 45.4085083,0.166015625 45.4085083,0.166015625 Z" id="Right-ear" fill="#2966A9" transform="translate(51.730743, 16.297028) scale(-1, 1) translate(-51.730743, -16.297028) "></path>
            <path d="M5.9987793,0.166015625 L24.3217773,26.8752441 L0.320251465,32.4280396 C0.320251465,32.4280396 0.835072028,27.6436279 1.24169922,25.2741699 C1.64832641,22.9047119 5.9987793,0.166015625 5.9987793,0.166015625 Z" id="Left-ear" fill="#2966A9"></path>
            <circle id="Left-eye" fill="#FFFFFF" cx="16" cy="42" r="6"></circle>
            <circle id="Right-eye" fill="#FFFFFF" cx="48.5" cy="42.5" r="5.5"></circle>
            <path d="M4.00847569,49.6602433 C4.00283612,49.7850042 4,49.9101398 4,50.0356323 C4,58.3887243 16.5655931,65.1602433 32.0660377,65.1602433 C47.5664823,65.1602433 60.1320754,58.3887243 60.1320754,50.0356323 C60.1320754,49.933697 60.1302042,49.8319973 60.1264791,49.7305425 C50.5779834,50.8596815 40.0631659,51.8506625 32.5693359,51.8506625 C24.92036,51.8506625 13.9298438,50.8182238 4.00846806,49.6602422 Z" id="Mouth" fill="#D49D7F"></path>
        </g>
        <g id="Batman-(Metallic)" transform="translate(70.000000, 0.000000)">
            <path d="M18.931177,10.7889005 C17.6327767,11.053947 16.5303291,11.3908781 15.6241734,11.8072496 C7.34336016,14.5906972 1.4147067,24.0586168 0.342285156,32.1035073 C-0.0560125151,35.091382 -0.428656931,45.9418198 1.59718857,50.814767 C2.97332435,55.6851917 6.62518651,59.7412981 11.477563,62.0181524 C15.1588466,63.9376318 22.1785254,65 31.5,65 C31.6670467,65 31.8337182,64.9995276 32,64.998587 C32.1662818,64.9995276 32.3329533,65 32.5,65 C41.8214746,65 48.8411534,63.9376318 52.522437,62.0181524 C57.3748135,59.7412981 61.0266756,55.6851917 62.4028114,50.814767 C64.4286569,45.9418198 64.0560125,35.091382 63.6577148,32.1035073 C62.5852933,24.0586168 56.6566398,14.5906972 48.3758266,11.8072496 C47.6024849,11.4519051 46.686175,11.1544206 45.6271077,10.9100996 C45.0356196,10.7458866 44.3853423,10.5929529 43.6716309,10.4526367 C38.0153596,9.34060998 34.2688486,9.31005859 30.7910156,9.31005859 C26.6309721,9.31005859 22.1532262,9.99848948 18.931177,10.7889005 Z" id="Face" fill="#06B4F0"></path>
            <path d="M45.4085083,0.166015625 L63.7315063,26.8752441 L39.7299805,32.4280396 C39.7299805,32.4280396 40.244801,27.6436279 40.6514282,25.2741699 C41.0580554,22.9047119 45.4085083,0.166015625 45.4085083,0.166015625 Z" id="Right-ear" fill="#06B4F0" transform="translate(51.730743, 16.297028) scale(-1, 1) translate(-51.730743, -16.297028) "></path>
            <path d="M5.9987793,0.166015625 L24.3217773,26.8752441 L0.320251465,32.4280396 C0.320251465,32.4280396 0.835072028,27.6436279 1.24169922,25.2741699 C1.64832641,22.9047119 5.9987793,0.166015625 5.9987793,0.166015625 Z" id="Left-ear" fill="#06B4F0"></path>
            <circle id="Left-eye" fill="#FFFFFF" cx="16" cy="42" r="6"></circle>
            <circle id="Right-eye" fill="#FFFFFF" cx="48.5" cy="42.5" r="5.5"></circle>
            <path d="M4.00847569,49.6602433 C4.00283612,49.7850042 4,49.9101398 4,50.0356323 C4,58.3887243 16.5655931,65.1602433 32.0660377,65.1602433 C47.5664823,65.1602433 60.1320754,58.3887243 60.1320754,50.0356323 C60.1320754,49.933697 60.1302042,49.8319973 60.1264791,49.7305425 C50.5779834,50.8596815 40.0631659,51.8506625 32.5693359,51.8506625 C24.92036,51.8506625 13.9298438,50.8182238 4.00846806,49.6602422 Z" id="Mouth" fill="#D49D7F"></path>
        </g>
        <g id="Batgirl" transform="translate(133.000000, 0.000000)">
            <path d="M52.9696997,56.2890767 C52.8232161,60.7558442 54.7650765,64.6086149 58.2368339,65.8965362 C59.0421463,66.1952837 59.8743489,66.3319899 60.7121324,66.3217031 C61.1435815,66.3310685 62.196991,66.3482295 63.0776367,66.3168945 C64.2156696,66.2764013 65.2662397,66.1367323 66.7301025,65.8995361 C69.5254484,65.4465938 70.9208708,64.6715274 72.0820312,63.6949463 C73.1424615,62.8030832 75.3637689,61.0071095 76.293457,58.925415 C77.2231452,56.8437206 76.9914551,52.6525879 76.9914551,52.6525879 C76.9914551,52.6525879 74.9238057,54.5988426 73.1148071,54.6889648 C73.0245489,54.6934614 72.8168398,54.6827374 72.6250305,54.5920105 C72.4332212,54.5012836 72.34638,54.4466754 72.199707,53.9671021 C71.9911967,53.2853404 71.8822176,52.229594 71.7938185,51.399621 C71.5637475,47.4713689 69.6683975,44.197766 66.5479231,43.0620062 C61.877122,41.3619736 56.2301889,45.0955086 53.9351449,51.4010899 C53.5132721,52.5601759 53.2330116,53.7240072 53.0857531,54.8625057 C52.4025903,54.9485218 52,55 52,55 L52.9696997,56.2890767 Z" id="Right-hair" fill="#C56750"></path>
            <path d="M0.969699671,56.2890767 C0.823216052,60.7558442 2.76507647,64.6086149 6.23683391,65.8965362 C7.04214635,66.1952837 7.87434888,66.3319899 8.71213236,66.3217031 C9.14358151,66.3310685 10.196991,66.3482295 11.0776367,66.3168945 C12.2156696,66.2764013 13.2662397,66.1367323 14.7301025,65.8995361 C17.5254484,65.4465938 18.9208708,64.6715274 20.0820312,63.6949463 C21.1424615,62.8030832 23.3637689,61.0071095 24.293457,58.925415 C25.2231452,56.8437206 24.9914551,52.6525879 24.9914551,52.6525879 C24.9914551,52.6525879 22.9238057,54.5988426 21.1148071,54.6889648 C21.0245489,54.6934614 20.8168398,54.6827374 20.6250305,54.5920105 C20.4332212,54.5012836 20.34638,54.4466754 20.199707,53.9671021 C19.9911967,53.2853404 19.8822176,52.229594 19.7938185,51.399621 C19.5637475,47.4713689 17.6683975,44.197766 14.5479231,43.0620062 C9.877122,41.3619736 4.23018885,45.0955086 1.93514494,51.4010899 C1.51327214,52.5601759 1.23301156,53.7240072 1.08575306,54.8625057 C0.402590298,54.9485218 0,55 0,55 L0.969699671,56.2890767 Z" id="Left-Hair" fill="#C56750" transform="translate(12.508545, 54.493140) scale(-1, 1) translate(-12.508545, -54.493140) "></path>
            <path d="M25.931177,10.7889005 C24.6327767,11.053947 23.5303291,11.3908781 22.6241734,11.8072496 C14.3433602,14.5906972 8.4147067,24.0586168 7.34228516,32.1035073 C6.94398748,35.091382 6.57134307,45.9418198 8.59718857,50.814767 C9.97332435,55.6851917 13.6251865,59.7412981 18.477563,62.0181524 C22.1588466,63.9376318 29.1785254,65 38.5,65 C38.6670467,65 38.8337182,64.9995276 39,64.998587 C39.1662818,64.9995276 39.3329533,65 39.5,65 C48.8214746,65 55.8411534,63.9376318 59.522437,62.0181524 C64.3748135,59.7412981 68.0266756,55.6851917 69.4028114,50.814767 C71.4286569,45.9418198 71.0560125,35.091382 70.6577148,32.1035073 C69.5852933,24.0586168 63.6566398,14.5906972 55.3758266,11.8072496 C54.6024849,11.4519051 53.686175,11.1544206 52.6271077,10.9100996 C52.0356196,10.7458866 51.3853423,10.5929529 50.6716309,10.4526367 C45.0153596,9.34060998 41.2688486,9.31005859 37.7910156,9.31005859 C33.6309721,9.31005859 29.1532262,9.99848948 25.931177,10.7889005 Z" id="Face" fill="#000000"></path>
            <path d="M52.4085083,0.166015625 L70.7315063,26.8752441 L46.7299805,32.4280396 C46.7299805,32.4280396 47.244801,27.6436279 47.6514282,25.2741699 C48.0580554,22.9047119 52.4085083,0.166015625 52.4085083,0.166015625 Z" id="Right-ear" fill="#000000" transform="translate(58.730743, 16.297028) scale(-1, 1) translate(-58.730743, -16.297028) "></path>
            <path d="M12.9987793,0.166015625 L31.3217773,26.8752441 L7.32025146,32.4280396 C7.32025146,32.4280396 7.83507203,27.6436279 8.24169922,25.2741699 C8.64832641,22.9047119 12.9987793,0.166015625 12.9987793,0.166015625 Z" id="Left-ear" fill="#000000"></path>
            <circle id="Left-eye" fill="#FFFFFF" cx="23" cy="42" r="6"></circle>
            <circle id="Right-eye" fill="#FFFFFF" cx="55.5" cy="42.5" r="5.5"></circle>
            <path d="M11.0456751,47.6602433 C11.8823048,57.3287671 24.1075691,65 39.0660377,65 C54.0245063,65 66.2497707,57.3287671 67.0864004,47.6602433 C57.3615795,49.5726963 46.6281969,51.2627867 39.0660377,51.2627867 C31.5038785,51.2627867 20.770496,49.5726963 11.0456751,47.6602433 Z" id="Mouth" fill="#D49D7F"></path>
            <polygon id="Nose" fill="#D49D7F" points="39.5 48 45 53 34 53"></polygon>
        </g>
        <g id="Green-Lantern" transform="translate(208.000000, 9.000000)">
            <path d="M23.931177,1.7889005 C22.6327767,2.05394698 21.5303291,2.39087812 20.6241734,2.80724963 C12.3433602,5.59069725 6.4147067,15.0586168 5.34228516,23.1035073 C4.94398748,26.091382 4.57134307,36.9418198 6.59718857,41.814767 C7.97332435,46.6851917 11.6251865,50.7412981 16.477563,53.0181524 C20.1588466,54.9376318 27.1785254,56 36.5,56 C36.6670467,56 36.8337182,55.9995276 37,55.998587 C37.1662818,55.9995276 37.3329533,56 37.5,56 C46.8214746,56 53.8411534,54.9376318 57.522437,53.0181524 C62.3748135,50.7412981 66.0266756,46.6851917 67.4028114,41.814767 C69.4286569,36.9418198 69.0560125,26.091382 68.6577148,23.1035073 C67.5852933,15.0586168 61.6566398,5.59069725 53.3758266,2.80724963 C52.6024849,2.45190513 51.686175,2.15442063 50.6271077,1.91009955 C50.0356196,1.74588659 49.3853423,1.59295287 48.6716309,1.45263672 C43.0153596,0.340609979 39.2688486,0.310058594 35.7910156,0.310058594 C31.6309721,0.310058594 27.1532262,0.998489479 23.931177,1.7889005 Z" id="Face" fill="#97DD40"></path>
            <path d="M32.3360597,26.8083527 L20.3633241,22.6103882 C16.1855286,21.1455402 12.3012951,23.5089187 11.6688849,27.8825638 L11.1685175,31.3430221 C10.5352632,35.7225045 13.4707468,40.2228562 17.7232182,41.4078771 L30.1644771,44.8748377 C30.4201532,44.9460861 30.6775071,45.0044648 30.9357578,45.0503701 C32.7626627,45.628856 35.4557879,46 38,46 C40.139314,46 42.6056543,45.5292416 44.5807773,44.8868683 C44.5953279,44.8828997 44.6098732,44.8788895 44.6244131,44.8748377 L57.065672,41.4078771 C61.3181434,40.2228562 64.253627,35.7225045 63.6203727,31.3430221 L63.1200053,27.8825638 C62.4875951,23.5089187 58.6033616,21.1455402 54.4255661,22.6103882 L41.7154062,27.0669136 C40.4344295,27.3892999 39.0060973,27.6340332 37.5,27.6340332 C35.6104805,27.6340332 33.843361,27.2488302 32.3360597,26.8083527 Z" id="Mask" fill="#079741"></path>
            <circle id="Right-eye" fill="#FFFFFF" cx="53.5" cy="33.5" r="5.5"></circle>
            <circle id="Left-eye" fill="#FFFFFF" cx="21" cy="33" r="6"></circle>
            <ellipse id="Right-Ear" fill="#97DD40" transform="translate(69.500000, 30.500000) rotate(5.000000) translate(-69.500000, -30.500000) " cx="69.5" cy="30.5" rx="3.5" ry="6.5"></ellipse>
            <ellipse id="Left-Ear" fill="#97DD40" transform="translate(4.500000, 30.500000) scale(-1, 1) rotate(5.000000) translate(-4.500000, -30.500000) " cx="4.5" cy="30.5" rx="3.5" ry="6.5"></ellipse>
        </g>
    </g>
</svg>